Coordinates
version=1
nRows=12
nColumns=19
inDegrees=yes

Units are S.I. units (second, meters, Newtons, ...)
If the header above contains a line with 'inDegrees', this indicates whether rotational values are in degrees (yes) or radians (no).

endheader
time	pelvis_tilt	pelvis_list	pelvis_rotation	pelvis_tx	pelvis_ty	pelvis_tz	hip_flexion_r	hip_adduction_r	hip_rotation_r	knee_angle_r	knee_angle_r_beta	ankle_angle_r	hip_flexion_l	hip_adduction_l	hip_rotation_l	knee_angle_l	knee_angle_l_beta	ankle_angle_l
     17.12666667	     -2.07975536	      7.41680803	     -0.55914120	      2.16125435	      1.01542649	      1.01717755	    -10.94484247	     -9.83308611	     -9.32468662	     49.44810107	      0.86303217	    -15.68243968	     22.33326274	     10.94111651	     -0.41429131	     16.38362839	      0.28594826	      1.00131668
     17.13333333	     -1.95030511	      8.18102564	     -0.23031916	      2.16061204	      1.01098842	      1.01659448	     -9.90732850	    -10.49506779	     -8.36203082	     52.94692303	      0.92409814	    -14.51122616	     22.55362559	     11.80700380	     -1.36360420	     18.25028645	      0.31852759	      0.90604497
     17.14000000	     -2.39203231	      8.67049177	      0.21105661	      2.15943905	      1.00577047	      1.01596217	     -8.08537342	    -10.74228996	     -7.16993600	     56.60235269	      0.98789742	    -13.32335017	     23.58964734	     12.37086684	     -2.11797392	     20.70655916	      0.36139763	      1.19863536
     17.14666667	     -1.89983733	      9.36903439	      0.77277243	      2.15829095	      1.00146188	      1.01541525	     -7.43477039	    -11.21211331	     -6.51745895	     60.00735513	      1.04732592	    -12.19770531	     23.51925724	     13.22126538	     -2.62312088	     23.16221252	      0.40425687	      1.83750403
     17.15333333	     -2.56007281	      9.66500785	      1.32644871	      2.15649955	      0.99575926	      1.01492985	     -5.21787717	    -11.14471708	     -5.32451407	     63.70983651	      1.11194641	    -11.09451934	     24.89001891	     13.59915221	     -3.01270849	     26.10285885	      0.45558083	      2.90224842
     17.16000000	     -2.72783077	     10.06394672	      1.95778712	      2.15461932	      0.99063875	      1.01448081	     -3.59101049	    -11.20831572	     -4.47856352	     67.24347837	      1.17362010	    -10.10801047	     25.58804406	     14.16439246	     -3.08932643	     28.88290982	      0.50410187	      4.20882338
     17.16666667	     -2.93833294	     10.41606056	      2.59957067	      2.15248994	      0.98559338	      1.01406248	     -1.84634953	    -11.21768744	     -3.65216200	     70.73195979	      1.23450558	     -9.21339701	     26.24621903	     14.73044493	     -2.93902954	     31.55013743	      0.55065378	      5.75573704
     17.17333333	     -3.16274470	     10.75943711	      3.22427036	      2.15017211	      0.98072284	      1.01369870	     -0.01655198	    -11.23582836	     -2.84810898	     74.14641564	      1.29409908	     -8.41753165	     26.79360188	     15.32505775	     -2.63457573	     34.00696519	      0.59353351	      7.42400520
     17.18000000	     -3.44975577	     11.10529234	      3.79047270	      2.14766606	      0.97607391	      1.01340317	      1.97426952	    -11.27148839	     -1.98386040	     77.48145547	      1.35230651	     -7.70575184	     27.27292594	     15.93030133	     -2.27302258	     36.20342583	      0.63186898	      9.16140441
     17.18666667	     -3.71768680	     11.47619157	      4.31966685	      2.14505070	      0.97182158	      1.01315832	      4.00056518	    -11.35931122	     -1.12028560	     80.68112735	      1.40815132	     -7.09452993	     27.56295480	     16.57683788	     -1.84483048	     38.08275857	      0.66466953	     10.87770989
     17.19333333	     -4.01073199	     11.86016822	      4.74999743	      2.14237447	      0.96793447	      1.01300632	      6.13179196	    -11.46952290	     -0.15401889	     83.73750462	      1.46149516	     -6.50391404	     27.72695563	     17.20041971	     -1.47081582	     39.65768895	      0.69215725	     12.52022190
     17.20000000	     -4.33876248	     12.19622865	      5.12875291	      2.13967747	      0.96446928	      1.01288073	      8.35743529	    -11.53428772	      0.85435039	     86.61178788	      1.51166087	     -5.97453105	     27.78116911	     17.74691334	     -1.11592378	     40.96193451	      0.71492063	     14.05571389
